HIERARCHY
ROOT Hips
{
	OFFSET 0.000000 0.000000 0.000000
	CHANNELS 6 Xposition Yposition Zposition Xrotation Yrotation Zrotation
	JOINT LeftUpLeg_virtual
	{
		OFFSET 0.000000 0.000000 0.000000
		CHANNELS 3 Xrotation Yrotation Zrotation
		JOINT LeftUpLeg
		{
			OFFSET 10.205400 -3.823500 0.155100
			CHANNELS 3 Xrotation Yrotation Zrotation
			JOINT LeftLeg
			{
				OFFSET 0.708757 -12.982077 0.567790
				CHANNELS 3 Xrotation Yrotation Zrotation
				JOINT LeftFoot
				{
					OFFSET -0.708756 -10.717838 -2.184338
					CHANNELS 3 Xrotation Yrotation Zrotation
					JOINT LeftToeBase
					{
						OFFSET 0.108149 -7.191104 7.560241
						CHANNELS 3 Xrotation Yrotation Zrotation
						JOINT LeftToe_End
						{
							OFFSET 0.070230 0.081724 4.490308
							CHANNELS 3 Xrotation Yrotation Zrotation
							End Site
							{
								OFFSET 0 0 0
							}
						}
					}
				}
			}
		}
	}
	JOINT RightUpLeg_virtual
	{
		OFFSET 0.000000 0.000000 0.000000
		CHANNELS 3 Xrotation Yrotation Zrotation
		JOINT RightUpLeg
		{
			OFFSET -10.205400 -3.823500 0.005500
			CHANNELS 3 Xrotation Yrotation Zrotation
			JOINT RightLeg
			{
				OFFSET -0.708756 -12.982134 0.610632
				CHANNELS 3 Xrotation Yrotation Zrotation
				JOINT RightFoot
				{
					OFFSET 0.708754 -10.717769 -1.945823
					CHANNELS 3 Xrotation Yrotation Zrotation
					JOINT RightToeBase
					{
						OFFSET -0.108140 -7.191069 7.372968
						CHANNELS 3 Xrotation Yrotation Zrotation
						JOINT RightToe_End
						{
							OFFSET -0.070227 0.081735 4.479403
							CHANNELS 3 Xrotation Yrotation Zrotation
							End Site
							{
								OFFSET 0 0 0
							}
						}
					}
				}
			}
		}
	}
	JOINT Spine_virtual
	{
		OFFSET 0.000000 0.000000 0.000000
		CHANNELS 3 Xrotation Yrotation Zrotation
		JOINT Spine
		{
			OFFSET 0.000000 6.876099 0.125700
			CHANNELS 3 Xrotation Yrotation Zrotation
			JOINT Spine1
			{
				OFFSET 0.000000 5.730043 0.104720
				CHANNELS 3 Xrotation Yrotation Zrotation
				JOINT Spine1_split
				{
					OFFSET 0.000000 5.730043 0.104720
					CHANNELS 3 Xrotation Yrotation Zrotation
					JOINT Spine2
					{
						OFFSET 0.000000 5.730043 0.104720
						CHANNELS 3 Xrotation Yrotation Zrotation
						JOINT Neck_virtual
						{
							OFFSET 0.000000 0.000000 0.000000
							CHANNELS 3 Xrotation Yrotation Zrotation
							JOINT Neck
							{
								OFFSET 0.000000 10.314075 0.188496
								CHANNELS 3 Xrotation Yrotation Zrotation
								JOINT Head
								{
									OFFSET 0.000000 7.643700 -2.377400
									CHANNELS 3 Xrotation Yrotation Zrotation
									JOINT HeadTop_End
									{
										OFFSET 0.000000 43.788605 -13.619600
										CHANNELS 3 Xrotation Yrotation Zrotation
										End Site
										{
											OFFSET 0 0 0
										}
									}
								}
							}
						}
						JOINT LeftShoulder_virtual
						{
							OFFSET 0.000000 0.000000 0.000000
							CHANNELS 3 Xrotation Yrotation Zrotation
							JOINT LeftShoulder
							{
								OFFSET 2.196100 4.412489 0.087492
								CHANNELS 3 Xrotation Yrotation Zrotation
								JOINT LeftShoulder_split
								{
									OFFSET 2.196100 4.412489 0.087492
									CHANNELS 3 Xrotation Yrotation Zrotation
									JOINT LeftArm
									{
										OFFSET 8.771219 -2.981674 -0.026999
										CHANNELS 3 Xrotation Yrotation Zrotation
										JOINT LeftForeArm
										{
											OFFSET 8.512804 0.000000 -0.000000
											CHANNELS 3 Xrotation Yrotation Zrotation
											JOINT LeftHand
											{
												OFFSET 18.484802 0.000000 -0.000000
												CHANNELS 3 Xrotation Yrotation Zrotation
												End Site
												{
													OFFSET 0 0 0
												}
											}
										}
									}
								}
							}
						}
						JOINT RightShoulder_virtual
						{
							OFFSET 0.000000 0.000000 0.000000
							CHANNELS 3 Xrotation Yrotation Zrotation
							JOINT RightShoulder
							{
								OFFSET -2.196100 4.412496 0.070690
								CHANNELS 3 Xrotation Yrotation Zrotation
								JOINT RightShoulder_split
								{
									OFFSET -2.196100 4.412496 0.070690
									CHANNELS 3 Xrotation Yrotation Zrotation
									JOINT RightArm
									{
										OFFSET -8.771282 -2.981682 -0.094208
										CHANNELS 3 Xrotation Yrotation Zrotation
										JOINT RightForeArm
										{
											OFFSET -8.494598 0.000000 0.000000
											CHANNELS 3 Xrotation Yrotation Zrotation
											JOINT RightHand
											{
												OFFSET -18.483803 0.000000 0.000001
												CHANNELS 3 Xrotation Yrotation Zrotation
												End Site
												{
													OFFSET 0 0 0
												}
											}
										}
									}
								}
							}
						}
					}
				}
			}
		}
	}
}
MOTION
Frames: 5
Frame Time: 0.03333333
-0.067799 33.095253 0.171995 0.000000 0.000000 0.000000 -9.038855 -2.613223 8.979748 10.288769 12.323049 -13.087750 17.294170 2.734838 -4.335398 -21.700857 -1.112018 1.990206 -1.540894 0.546643 -0.852987 0.000000 0.000000 0.000000 -8.808717 -2.542962 8.803063 3.836612 -8.173897 -35.516045 21.492657 7.773952 7.481352 -13.836355 -15.918861 10.513884 -4.777849 0.094530 -0.793892 0.000000 0.000000 0.000000 -8.493415 -5.638328 8.192061 2.476177 -1.319503 -6.624086 4.062471 2.187604 -3.120619 2.136379 -1.260672 1.701293 0.000000 0.000000 0.000000 3.683393 1.838618 -3.296415 0.249943 -3.287612 -6.523690 -1.073290 -11.806204 5.884315 0.000000 0.000000 0.000000 4.535903 1.289609 -3.403107 3.527371 -8.140628 -19.251701 -6.293262 4.755208 -6.049569 17.511577 2.498303 -46.415124 1.079006 -46.796648 -5.383821 0.000000 0.000000 0.000000 2.696375 1.966060 -2.076638 6.247983 5.607290 6.270780 -3.076681 4.294057 0.596868 1.066696 -9.040850 68.109663 18.194799 30.086225 0.926793 0.000000 0.000000 0.000000 
-0.164608 33.232540 0.447742 0.000000 0.000000 0.000000 -8.882984 -2.176840 8.943832 10.052571 11.151177 -12.465327 17.558337 2.809959 -4.168082 -21.023722 -0.821452 2.583191 -1.878754 0.555916 -0.952753 0.000000 0.000000 0.000000 -8.811676 -2.050726 8.776563 4.705838 -8.889686 -35.250927 20.686179 7.326216 7.224767 -13.409932 -15.372878 11.512797 -6.083318 0.091687 -0.720556 0.000000 0.000000 0.000000 -8.663736 -5.008410 7.731737 2.510163 -1.252348 -6.690668 5.029456 2.227939 -2.857894 2.280729 -0.486325 1.836247 0.000000 0.000000 0.000000 4.396272 1.948176 -3.106286 -0.867725 -3.258615 -5.862770 -2.700678 -10.308426 5.434055 0.000000 0.000000 0.000000 5.433111 1.343782 -3.142753 3.577893 -9.374407 -17.596891 -4.014617 1.702791 -3.854480 18.658368 -0.366221 -47.489233 1.285958 -47.459966 -5.034717 0.000000 0.000000 0.000000 3.404799 2.062809 -1.936770 5.846781 5.933924 6.416330 -2.976003 5.397198 0.507294 2.141483 -6.765569 67.179152 18.712084 33.476202 -0.016626 0.000000 0.000000 0.000000 
-0.283784 33.465897 0.586100 0.000000 0.000000 0.000000 -9.047017 -1.736194 8.674556 9.744873 10.245054 -11.792685 17.827994 2.654597 -3.953107 -19.882457 -0.249593 3.283868 -2.613859 0.575576 -0.818399 0.000000 0.000000 0.000000 -8.758297 -1.579224 8.513201 5.803692 -9.734156 -34.700633 18.861129 6.402866 6.829711 -12.305996 -14.475818 12.066683 -6.709333 0.182147 -0.781035 0.000000 0.000000 0.000000 -8.882865 -4.247728 7.007408 2.839878 -0.925669 -6.618756 6.566629 2.267081 -2.395905 1.929129 0.336970 1.571839 0.000000 0.000000 0.000000 6.009096 2.118892 -2.742638 -3.518670 -2.857085 -5.835325 -5.004701 -8.586133 4.494810 0.000000 0.000000 0.000000 7.032002 1.612971 -2.688582 3.590657 -11.619528 -14.781706 -1.849617 -0.280790 -2.394197 23.572777 -6.230317 -44.974060 -2.032913 -52.856519 -5.890391 0.000000 0.000000 0.000000 5.017676 2.206874 -1.678470 5.405108 6.341777 6.265932 -2.728622 6.011462 0.473534 4.244144 -1.456004 64.899884 20.295928 36.753627 -3.071001 0.000000 0.000000 0.000000 
-0.380873 33.697857 0.594418 0.000000 0.000000 0.000000 -9.393495 -1.441299 8.178730 9.360246 9.933823 -11.269256 18.044130 2.286327 -3.804408 -18.383046 0.565240 3.873380 -3.387506 0.603285 -0.606003 0.000000 0.000000 0.000000 -8.589583 -1.188165 8.042495 6.206765 -10.155991 -34.030813 17.482808 5.349958 6.416159 -10.019092 -13.300937 12.490947 -7.356895 0.272287 -1.001924 0.000000 0.000000 0.000000 -9.305897 -3.480962 6.200576 3.451850 -0.448850 -6.452478 8.422958 2.223926 -1.782772 1.249010 0.198934 1.459352 0.000000 0.000000 0.000000 8.263637 2.214175 -2.247682 -7.148457 -1.905193 -6.348461 -7.873689 -6.671950 3.074962 0.000000 0.000000 0.000000 8.987842 1.933923 -2.113296 3.664508 -14.488928 -11.163905 -0.667704 -0.514568 -3.048595 30.904011 -12.181210 -39.085549 -9.443498 -62.123494 -8.750470 0.000000 0.000000 0.000000 7.242287 2.289397 -1.330787 4.847329 6.957425 6.054440 -2.381906 5.760706 0.359736 7.008667 4.858732 61.378361 22.906602 39.733191 -8.090730 0.000000 0.000000 0.000000 
-0.491898 33.905785 0.546812 0.000000 0.000000 0.000000 -9.797466 -1.166577 7.531930 8.833122 10.312525 -10.869386 18.187303 1.686224 -3.813509 -16.601145 1.464449 4.168222 -4.077744 0.634874 -0.373378 0.000000 0.000000 0.000000 -8.243187 -0.727119 7.410711 5.151099 -9.636199 -33.409771 18.257710 4.789682 6.073052 -6.480849 -11.824729 13.457788 -8.827287 0.341922 -1.369673 0.000000 0.000000 0.000000 -9.791905 -2.625516 5.436987 4.266442 -0.018940 -6.212995 10.345301 2.065081 -1.131896 0.050854 0.052559 1.107521 0.000000 0.000000 0.000000 10.786450 2.119773 -1.706808 -11.005585 -0.410652 -7.168272 -11.337277 -4.646641 1.232598 0.000000 0.000000 0.000000 11.016088 2.142756 -1.543626 3.809453 -17.636932 -7.565357 0.178631 -0.153178 -5.106125 39.347955 -16.075649 -31.187002 -21.644986 -72.803116 -15.254300 0.000000 0.000000 0.000000 9.695482 2.225823 -0.941785 4.215793 8.050751 6.252595 -2.308484 5.114675 -0.174873 10.193999 10.476887 56.849994 26.396424 43.075288 -14.978407 0.000000 0.000000 0.000000 
